<svg width="414.2599853515625px" height="124.439990234375px" xmlns="http://www.w3.org/2000/svg" viewBox="42.87000732421876 12.780004882812499 414.2599853515625 124.439990234375" style="background: rgba(0, 0, 0, 0) none repeat scroll 0% 0%;" preserveAspectRatio="xMidYMid"><defs><filter id="editing-extrude-glow"><feFlood flood-color="#333333" result="flood-1"></feFlood><feMorphology operator="erode" radius="1" in="SourceAlpha" result="erode"></feMorphology><feComposite operator="in" in="flood-1" in2="erode" result="comp1"></feComposite><feConvolveMatrix order="3,3" divisor="1" in="comp1" result="convolve" kernelMatrix="0 0 0 1 1 1 0 0 0"></feConvolveMatrix><feOffset dx="-3" dy="0" in="convolve" result="extrude"></feOffset><feComposite operator="in" in="flood-1" in2="extrude" result="comp-extrude"></feComposite><feFlood flood-color="#000000" result="flood-2"></feFlood><feComposite operator="in" in="flood-2" in2="SourceAlpha" result="comp2"></feComposite><feMorphology operator="dilate" radius="1" in="comp2" result="dilate"></feMorphology><feOffset dx="-4.5" dy="0" in="dilate" result="offset"></feOffset><feGaussianBlur in="offset" stdDeviation="5.8" result="blur"></feGaussianBlur><feComponentTransfer in="blur" result="shadow"><feFuncA type="linear" slope="0.8" intercept="-0.2"></feFuncA></feComponentTransfer><feMerge><feMergeNode in="shadow"></feMergeNode><feMergeNode in="comp-extrude"></feMergeNode><feMergeNode in="SourceGraphic"></feMergeNode></feMerge></filter></defs><g filter="url(#editing-extrude-glow)"><g transform="translate(106.13411927223206, 98.68000030517578)"><path d="M42.62-26.56L42.62-26.56L42.62-26.56Q42.62 0.70 13.06 0.70L13.06 0.70L13.06 0.70Q8.32 0.70 0.51-0.45L0.51-0.45L7.68-38.27L7.68-38.27Q8.19-40.83 8.51-42.30L8.51-42.30L8.51-42.30Q18.24-43.01 22.56-43.01L22.56-43.01L22.56-43.01Q26.88-43.01 30.85-42.11L30.85-42.11L30.85-42.11Q34.82-41.22 37.44-39.23L37.44-39.23L37.44-39.23Q42.62-35.33 42.62-26.56ZM29.44-28.93L29.44-28.93L29.44-28.93Q29.44-38.46 22.59-38.46L22.59-38.46L21.95-38.46L21.95-38.46Q21.63-38.46 21.31-38.40L21.31-38.40L14.72-4.03L14.72-4.03Q14.98-3.90 15.23-3.90L15.23-3.90L15.74-3.90L15.74-3.90Q18.11-3.90 20.58-5.38L20.58-5.38L20.58-5.38Q23.04-6.85 24.96-9.86L24.96-9.86L24.96-9.86Q29.44-16.83 29.44-28.93ZM43.97-3.78L43.97-3.78L43.97-3.78Q43.97-6.21 45.86-7.55L45.86-7.55L45.86-7.55Q47.74-8.90 50.43-8.90L50.43-8.90L50.43-8.90Q53.12-8.90 54.75-7.55L54.75-7.55L54.75-7.55Q56.38-6.21 56.38-3.78L56.38-3.78L56.38-3.78Q56.38-1.34 54.56-0.03L54.56-0.03L54.56-0.03Q52.74 1.28 50.05 1.28L50.05 1.28L50.05 1.28Q47.36 1.28 45.66-0.03L45.66-0.03L45.66-0.03Q43.97-1.34 43.97-3.78ZM89.66-9.86L89.66-9.86L89.66-9.86Q90.88-8.32 90.88-5.82L90.88-5.82L90.88-5.82Q90.88-2.37 88.32-0.54L88.32-0.54L88.32-0.54Q85.76 1.28 81.73 1.28L81.73 1.28L81.73 1.28Q79.42 1.28 75.90 0.77L75.90 0.77L75.90 0.77Q68.99-0.32 66.88-0.32L66.88-0.32L66.88-0.32Q64.77-0.32 63.94-0.22L63.94-0.22L63.94-0.22Q63.10-0.13 61.76 0L61.76 0L69.63-42.24L97.22-42.24L97.22-42.24Q97.22-38.34 95.33-36.29L95.33-36.29L95.33-36.29Q93.44-34.24 89.73-34.24L89.73-34.24L89.73-34.24Q86.02-34.24 82.24-35.97L82.24-35.97L80.26-24.77L91.65-24.77L91.65-24.77Q91.65-21.38 89.98-19.49L89.98-19.49L89.98-19.49Q88.32-17.60 85.54-17.60L85.54-17.60L85.54-17.60Q82.75-17.60 81.02-18.24L81.02-18.24L81.02-18.24Q79.30-18.88 79.10-19.07L79.10-19.07L76.80-6.98L76.80-6.98Q78.34-6.78 81.22-6.78L81.22-6.78L81.22-6.78Q86.14-6.78 89.66-9.86ZM94.85-3.78L94.85-3.78L94.85-3.78Q94.85-6.21 96.74-7.55L96.74-7.55L96.74-7.55Q98.62-8.90 101.31-8.90L101.31-8.90L101.31-8.90Q104-8.90 105.63-7.55L105.63-7.55L105.63-7.55Q107.26-6.21 107.26-3.78L107.26-3.78L107.26-3.78Q107.26-1.34 105.44-0.03L105.44-0.03L105.44-0.03Q103.62 1.28 100.93 1.28L100.93 1.28L100.93 1.28Q98.24 1.28 96.54-0.03L96.54-0.03L96.54-0.03Q94.85-1.34 94.85-3.78ZM132.35-22.46L132.35-22.46L132.35-22.46Q133.25-24.83 133.25-26.88L133.25-26.88L133.25-26.88Q133.25-30.66 130.18-30.66L130.18-30.66L130.18-30.66Q128.58-30.66 127.26-29.22L127.26-29.22L127.26-29.22Q125.95-27.78 125.95-25.98L125.95-25.98L125.95-25.98Q125.95-24.70 126.98-23.68L126.98-23.68L126.98-23.68Q128.45-22.27 132.22-19.97L132.22-19.97L132.22-19.97Q136-17.66 137.44-15.78L137.44-15.78L137.44-15.78Q138.88-13.89 138.88-11.30L138.88-11.30L138.88-11.30Q138.88-8.70 137.63-6.34L137.63-6.34L137.63-6.34Q136.38-3.97 134.14-2.30L134.14-2.30L134.14-2.30Q129.34 1.28 121.66 1.28L121.66 1.28L121.66 1.28Q117.50 1.28 114.30-0.90L114.30-0.90L114.30-0.90Q111.10-3.01 111.10-5.50L111.10-5.50L111.10-5.50Q111.10-8 112.93-9.47L112.93-9.47L112.93-9.47Q114.75-10.94 117.44-10.94L117.44-10.94L117.44-10.94Q120.13-10.94 121.79-9.92L121.79-9.92L121.79-9.92Q120.96-7.81 120.96-6.40L120.96-6.40L120.96-6.40Q120.96-2.18 124.54-2.18L124.54-2.18L124.54-2.18Q126.08-2.18 127.10-3.14L127.10-3.14L127.10-3.14Q128.13-4.10 128.13-5.76L128.13-5.76L128.13-5.76Q128.13-9.02 122.62-12.48L122.62-12.48L122.62-12.48Q118.14-15.42 117.12-16.58L117.12-16.58L117.12-16.58Q115.39-18.62 115.39-21.18L115.39-21.18L115.39-21.18Q115.39-23.74 116.61-26.18L116.61-26.18L116.61-26.18Q117.82-28.61 120.06-30.34L120.06-30.34L120.06-30.34Q124.74-33.92 132.86-33.92L132.86-33.92L132.86-33.92Q137.02-33.92 139.49-32.26L139.49-32.26L139.49-32.26Q141.95-30.59 141.95-27.78L141.95-27.78L141.95-27.78Q141.95-24.96 140.26-23.36L140.26-23.36L140.26-23.36Q138.56-21.76 135.49-21.76L135.49-21.76L135.49-21.76Q133.38-21.76 132.35-22.46ZM175.74-26.62L175.74-26.62L175.74-26.62Q175.74-23.94 173.50-22.27L173.50-22.27L173.50-22.27Q171.26-20.61 167.62-20.61L167.62-20.61L167.62-20.61Q166.08-20.61 165.18-21.06L165.18-21.06L165.18-21.06Q165.89-22.72 166.11-24.80L166.11-24.80L166.11-24.80Q166.34-26.88 166.34-27.46L166.34-27.46L166.34-27.46Q166.34-30.14 164.48-30.14L164.48-30.14L164.48-30.14Q163.20-30.14 161.76-28.54L161.76-28.54L161.76-28.54Q160.32-26.94 159.10-24.45L159.10-24.45L159.10-24.45Q156.42-18.69 156.42-12.86L156.42-12.86L156.42-12.86Q156.42-9.66 157.63-8.22L157.63-8.22L157.63-8.22Q158.85-6.78 161.54-6.78L161.54-6.78L161.54-6.78Q165.25-6.78 168.19-9.86L168.19-9.86L168.19-9.86Q169.02-10.82 169.47-11.90L169.47-11.90L169.47-11.90Q171.90-10.62 171.90-7.10L171.90-7.10L171.90-7.10Q171.90-3.52 167.94-1.15L167.94-1.15L167.94-1.15Q163.84 1.28 157.31 1.28L157.31 1.28L157.31 1.28Q144.32 1.28 144.32-12.48L144.32-12.48L144.32-12.48Q144.32-22.53 150.02-28.29L150.02-28.29L150.02-28.29Q155.52-33.92 165.63-33.92L165.63-33.92L165.63-33.92Q175.74-33.92 175.74-26.62ZM191.42 1.28L191.42 1.28L191.42 1.28Q177.34 1.28 177.34-11.97L177.34-11.97L177.34-11.97Q177.34-21.38 182.53-27.46L182.53-27.46L182.53-27.46Q188.03-33.92 197.57-33.92L197.57-33.92L197.57-33.92Q204.48-33.92 208-30.72L208-30.72L208-30.72Q211.52-27.52 211.52-20.80L211.52-20.80L211.52-20.80Q211.52-10.56 206.02-4.61L206.02-4.61L206.02-4.61Q200.64 1.28 191.42 1.28ZM193.09-26.56L193.09-26.56L193.09-26.56Q192.32-24.83 191.71-22.24L191.71-22.24L191.71-22.24Q191.10-19.65 190.34-15.55L190.34-15.55L190.34-15.55Q189.57-11.46 189.57-6.40L189.57-6.40L189.57-6.40Q189.57-4.74 190.11-3.65L190.11-3.65L190.11-3.65Q190.66-2.56 192.13-2.56L192.13-2.56L192.13-2.56Q193.60-2.56 194.53-3.26L194.53-3.26L194.53-3.26Q195.46-3.97 196.16-5.63L196.16-5.63L196.16-5.63Q197.44-8.58 198.46-14.05L198.46-14.05L198.46-14.05Q199.49-19.52 199.58-21.89L199.58-21.89L199.58-21.89Q199.68-24.26 199.68-26.02L199.68-26.02L199.68-26.02Q199.68-27.78 199.17-28.93L199.17-28.93L199.17-28.93Q198.66-30.08 197.22-30.08L197.22-30.08L197.22-30.08Q195.78-30.08 194.82-29.18L194.82-29.18L194.82-29.18Q193.86-28.29 193.09-26.56ZM235.33-17.98L235.33-17.98L235.33-17.98Q237.63-22.08 237.63-26.24L237.63-26.24L237.63-26.24Q237.63-28.99 235.65-28.99L235.65-28.99L235.65-28.99Q234.11-28.99 232.51-26.37L232.51-26.37L232.51-26.37Q230.85-23.74 230.34-20.35L230.34-20.35L227.01 0L213.76 1.28L220.29-32.64L230.85-33.92L229.70-27.46L229.70-27.46Q232.83-33.92 239.87-33.92L239.87-33.92L239.87-33.92Q243.58-33.92 245.60-32L245.60-32L245.60-32Q247.62-30.08 247.62-26.14L247.62-26.14L247.62-26.14Q247.62-22.21 245.02-19.71L245.02-19.71L245.02-19.71Q242.43-17.22 238.02-17.22L238.02-17.22L238.02-17.22Q236.10-17.22 235.33-17.98ZM268.80-33.92L268.80-33.92L268.80-33.92Q271.10-33.92 272.90-33.41L272.90-33.41L272.90-33.41Q272.96-33.66 273.09-34.37L273.09-34.37L273.41-36.35L273.41-36.35Q273.66-37.63 274.05-39.74L274.05-39.74L275.07-44.80L287.81-46.08L280.70-8.96L280.70-8.96Q280.64-8.58 280.64-7.94L280.64-7.94L280.64-6.91L280.64-6.91Q280.64-5.50 281.34-4.45L281.34-4.45L281.34-4.45Q282.05-3.39 283.20-3.39L283.20-3.39L283.20-3.39Q281.92-0.38 278.02 0.90L278.02 0.90L278.02 0.90Q276.67 1.28 274.78 1.28L274.78 1.28L274.78 1.28Q272.90 1.28 271.17 0.29L271.17 0.29L271.17 0.29Q269.44-0.70 268.93-2.37L268.93-2.37L268.93-2.37Q267.90-0.70 265.86 0.29L265.86 0.29L265.86 0.29Q263.81 1.28 260.83 1.28L260.83 1.28L260.83 1.28Q257.86 1.28 255.39 0.51L255.39 0.51L255.39 0.51Q252.93-0.26 251.39-1.92L251.39-1.92L251.39-1.92Q248.58-5.18 248.58-12.61L248.58-12.61L248.58-12.61Q248.58-22.21 254.21-28.03L254.21-28.03L254.21-28.03Q259.84-33.92 268.80-33.92ZM268.35-30.08L268.35-30.08L268.35-30.08Q265.98-30.08 264.70-27.52L264.70-27.52L264.70-27.52Q263.42-24.96 262.11-18.62L262.11-18.62L262.11-18.62Q260.80-12.29 260.80-6.59L260.80-6.59L260.80-6.59Q260.80-2.69 263.10-2.69L263.10-2.69L263.10-2.69Q265.15-2.69 266.59-4.74L266.59-4.74L266.59-4.74Q268.03-6.78 268.61-10.18L268.61-10.18L272.06-28.93L272.06-28.93Q270.72-30.08 268.35-30.08Z" fill="#eb6c6c"></path></g></g><style>text {
  font-size: 64px;
  font-family: Arial Black;
  dominant-baseline: central;
  text-anchor: middle;
}</style></svg>